<?xml version="1.0" encoding="utf-8"?>
<!-- Generator: Adobe Illustrator 22.0.1, SVG Export Plug-In . SVG Version: 6.00 Build 0)  -->
<svg version="1.1"
	 id="Layer_1" inkscape:export-filename="C:\Users\HernanS\Desktop\bet_one1.png" inkscape:export-xdpi="59.880001" inkscape:export-ydpi="59.880001" inkscape:version="0.48.4 r9939" sodipodi:docname="bet_one.svg" xmlns:cc="http://creativecommons.org/ns#" xmlns:dc="http://purl.org/dc/elements/1.1/" xmlns:inkscape="http://www.inkscape.org/namespaces/inkscape" xmlns:ns1="http://sozi.baierouge.fr" xmlns:rdf="http://www.w3.org/1999/02/22-rdf-syntax-ns#" xmlns:sodipodi="http://sodipodi.sourceforge.net/DTD/sodipodi-0.dtd"
	 xmlns="http://www.w3.org/2000/svg" xmlns:xlink="http://www.w3.org/1999/xlink" x="0px" y="0px" viewBox="0 0 49.2 49.3"
	 style="enable-background:new 0 0 49.2 49.3;" xml:space="preserve">
<style type="text/css">
	.st0{opacity:0.8783;fill:#9A9A9A;enable-background:new    ;}
	.st1{opacity:0.887;fill:#999999;enable-background:new    ;}
	.st2{opacity:0.8957;fill:#989898;enable-background:new    ;}
	.st3{opacity:0.9043;fill:#979797;enable-background:new    ;}
	.st4{opacity:0.913;fill:#969696;enable-background:new    ;}
	.st5{opacity:0.9217;fill:#959595;enable-background:new    ;}
	.st6{opacity:0.9304;fill:#949494;enable-background:new    ;}
	.st7{opacity:0.9391;fill:#939393;enable-background:new    ;}
	.st8{opacity:0.9478;fill:#929292;enable-background:new    ;}
	.st9{opacity:0.9565;fill:#919191;enable-background:new    ;}
	.st10{opacity:0.9652;fill:#909090;enable-background:new    ;}
	.st11{opacity:0.9739;fill:#8F8F8F;enable-background:new    ;}
	.st12{opacity:0.9826;fill:#8E8E8E;enable-background:new    ;}
	.st13{opacity:0.9913;fill:#8D8D8D;enable-background:new    ;}
	.st14{fill:#8C8C8C;}
	.st15{fill:#004C1F;}
	.st16{opacity:0.7;}
	.st17{fill:url(#path585_1_);}
	.st18{fill:url(#path600_1_);}
	.st19{opacity:0.4;fill:#FFFFFF;enable-background:new    ;}
	.st20{opacity:0.7;fill:#FFFFFF;enable-background:new    ;}
	.st21{fill:#609315;}
	.st22{fill:#FFFFFF;}
	.st23{opacity:0.5;fill:url(#path18159_1_);enable-background:new    ;}
	.st24{opacity:0.5;fill:url(#path18161_1_);enable-background:new    ;}
	.st25{opacity:0.5;fill:url(#path18185_1_);enable-background:new    ;}
	.st26{opacity:0.5;fill:url(#path18187_1_);enable-background:new    ;}
</style>
<sodipodi:namedview  bordercolor="#666666" borderopacity="1" gridtolerance="10" guidetolerance="10" id="namedview10589" inkscape:current-layer="Layer_1" inkscape:cx="314.27829" inkscape:cy="127.63919" inkscape:pageopacity="0" inkscape:pageshadow="2" inkscape:window-height="745" inkscape:window-maximized="1" inkscape:window-width="1304" inkscape:window-x="54" inkscape:window-y="-8" inkscape:zoom="1.0934588" objecttolerance="10" pagecolor="#ffffff" showgrid="false">
	</sodipodi:namedview>
<g id="g18909">
	
		<ellipse id="ellipse528" sodipodi:cx="98.279999" sodipodi:cy="127.281" sodipodi:rx="4.7199998" sodipodi:ry="1.171" class="st0" cx="24.6" cy="48.2" rx="4.7" ry="1.2">
	</ellipse>
	
		<ellipse id="ellipse530" sodipodi:cx="98.279999" sodipodi:cy="127.281" sodipodi:rx="4.5250001" sodipodi:ry="1.114" class="st1" cx="24.6" cy="48.2" rx="4.5" ry="1.1">
	</ellipse>
	
		<ellipse id="ellipse532" sodipodi:cx="98.279999" sodipodi:cy="127.281" sodipodi:rx="4.3299999" sodipodi:ry="1.057" class="st2" cx="24.6" cy="48.2" rx="4.3" ry="1.1">
	</ellipse>
	
		<ellipse id="ellipse534" sodipodi:cx="98.279999" sodipodi:cy="127.281" sodipodi:rx="4.1350002" sodipodi:ry="1" class="st3" cx="24.6" cy="48.2" rx="4.1" ry="1">
	</ellipse>
	
		<ellipse id="ellipse536" sodipodi:cx="98.279999" sodipodi:cy="127.281" sodipodi:rx="3.9400001" sodipodi:ry="0.94300002" class="st4" cx="24.6" cy="48.2" rx="3.9" ry="0.9">
	</ellipse>
	
		<ellipse id="ellipse538" sodipodi:cx="98.279999" sodipodi:cy="127.281" sodipodi:rx="3.7460001" sodipodi:ry="0.88599998" class="st5" cx="24.6" cy="48.2" rx="3.7" ry="0.9">
	</ellipse>
	
		<ellipse id="ellipse540" sodipodi:cx="98.279999" sodipodi:cy="127.281" sodipodi:rx="3.5510001" sodipodi:ry="0.829" class="st6" cx="24.6" cy="48.2" rx="3.6" ry="0.8">
	</ellipse>
	
		<ellipse id="ellipse542" sodipodi:cx="98.279999" sodipodi:cy="127.281" sodipodi:rx="3.3559999" sodipodi:ry="0.77100003" class="st7" cx="24.6" cy="48.2" rx="3.4" ry="0.8">
	</ellipse>
	
		<ellipse id="ellipse544" sodipodi:cx="98.279999" sodipodi:cy="127.281" sodipodi:rx="3.161" sodipodi:ry="0.71399999" class="st8" cx="24.6" cy="48.2" rx="3.2" ry="0.7">
	</ellipse>
	
		<ellipse id="ellipse546" sodipodi:cx="98.279999" sodipodi:cy="127.281" sodipodi:rx="2.9660001" sodipodi:ry="0.65700001" class="st9" cx="24.6" cy="48.2" rx="3" ry="0.7">
	</ellipse>
	
		<ellipse id="ellipse548" sodipodi:cx="98.279999" sodipodi:cy="127.281" sodipodi:rx="2.7709999" sodipodi:ry="0.60000002" class="st10" cx="24.6" cy="48.2" rx="2.8" ry="0.6">
	</ellipse>
	
		<ellipse id="ellipse550" sodipodi:cx="98.279999" sodipodi:cy="127.281" sodipodi:rx="2.576" sodipodi:ry="0.54299998" class="st11" cx="24.6" cy="48.2" rx="2.6" ry="0.5">
	</ellipse>
	
		<ellipse id="ellipse552" sodipodi:cx="98.279999" sodipodi:cy="127.281" sodipodi:rx="2.381" sodipodi:ry="0.486" class="st12" cx="24.6" cy="48.2" rx="2.4" ry="0.5">
	</ellipse>
	
		<ellipse id="ellipse554" sodipodi:cx="98.279999" sodipodi:cy="127.281" sodipodi:rx="2.187" sodipodi:ry="0.42899999" class="st13" cx="24.6" cy="48.2" rx="2.2" ry="0.4">
	</ellipse>
	
		<ellipse id="ellipse556" sodipodi:cx="98.278" sodipodi:cy="127.283" sodipodi:rx="1.99" sodipodi:ry="0.37" class="st14" cx="24.6" cy="48.2" rx="2" ry="0.4">
	</ellipse>
	<path id="path558" inkscape:connector-curvature="0" class="st15" d="M0,24.6c0,13.6,11,24.6,24.6,24.6c13.6,0,24.6-11,24.6-24.6
		S38.1,0,24.6,0C11,0,0,11,0,24.6z"/>
	<g id="g562" transform="translate(86.423 89.624)" class="st16">
		
			<linearGradient id="path585_1_" gradientUnits="userSpaceOnUse" x1="96.0355" y1="-106.58" x2="96.0355" y2="-148.988" gradientTransform="matrix(-1 0 0 1 34.205 62.753)">
			<stop  offset="0" style="stop-color:#FFFFFF"/>
			<stop  offset="1.590000e-02" style="stop-color:#F7F7F7"/>
			<stop  offset="0.1324" style="stop-color:#BEBEBE"/>
			<stop  offset="0.2522" style="stop-color:#8B8B8B"/>
			<stop  offset="0.3727" style="stop-color:#606060"/>
			<stop  offset="0.4941" style="stop-color:#3D3D3D"/>
			<stop  offset="0.6165" style="stop-color:#222222"/>
			<stop  offset="0.7404" style="stop-color:#0F0F0F"/>
			<stop  offset="0.867" style="stop-color:#040404"/>
			<stop  offset="1" style="stop-color:#000000"/>
		</linearGradient>
		<path id="path585" inkscape:connector-curvature="0" class="st17" d="M-61.8-85.3c11.7,0,21.1,9,21.4,20.3c0-0.2,0-0.3,0-0.5
			c0-11.5-9.6-20.7-21.4-20.7c-11.8,0-21.4,9.3-21.4,20.7c0,0.2,0,0.3,0,0.5C-83-76.3-73.5-85.3-61.8-85.3z"/>
	</g>
	
		<linearGradient id="path600_1_" gradientUnits="userSpaceOnUse" x1="-131.566" y1="116.198" x2="-131.566" y2="69.055" gradientTransform="matrix(1 0 0 -1 156.305 117.017)">
		<stop  offset="0" style="stop-color:#80C41C"/>
		<stop  offset="0.1047" style="stop-color:#65AD1D"/>
		<stop  offset="0.2571" style="stop-color:#4B961F"/>
		<stop  offset="0.4309" style="stop-color:#3B871F"/>
		<stop  offset="0.6427" style="stop-color:#337F1F"/>
		<stop  offset="1" style="stop-color:#307C1F"/>
	</linearGradient>
	<path id="path600" inkscape:connector-curvature="0" class="st18" d="M48.3,24.4c0,13-10.6,23.6-23.6,23.6
		c-13,0-23.6-10.6-23.6-23.6c0-13,10.6-23.6,23.6-23.6C37.8,0.8,48.3,11.4,48.3,24.4z"/>
	<path id="path602" inkscape:connector-curvature="0" class="st19" d="M24.5,44.8c-5.7,0-13.4-2.6-18.4-8.4c4,5.9,10.8,9.8,18.4,9.8
		c8.4,0,15.6-4.6,19.4-11.4C39.6,40.8,32.2,44.8,24.5,44.8z"/>
	<path id="path604" inkscape:connector-curvature="0" class="st20" d="M24.6,3.6c6.9,0,13.3,3.3,17.2,8.4c-3.4-5.7-9.9-9.6-17.2-9.6
		c-7.4,0-13.8,3.9-17.2,9.6C11.2,6.9,17.7,3.6,24.6,3.6z"/>
	<path id="path654" inkscape:connector-curvature="0" class="st21" d="M21.4,9.6c-1,0-2.1,0.6-2.1,2.3v7.9h-7.9
		c-1.7,0-2.3,1.1-2.3,2.1v6.4c0,1,0.6,2.1,2.3,2.1h7.9v7.9c0,1.7,1.1,2.3,2.1,2.3h6.4c1,0,2.1-0.6,2.1-2.3v-7.9h7.9
		c1.7,0,2.3-1.1,2.3-2.1v-6.4c0-1-0.6-2.1-2.3-2.1h-7.9v-7.9c0-1.7-1.1-2.3-2.1-2.3H21.4z"/>
	<path id="path656" inkscape:connector-curvature="0" class="st22" d="M38.9,28.3c0,0.6-0.4,0.9-1.2,0.9h-9.1v9
		c0,0.8-0.3,1.2-0.9,1.2h-6.4c-0.6,0-0.9-0.4-0.9-1.2v-9h-9c-0.8,0-1.2-0.3-1.2-0.9v-6.4c0-0.6,0.4-0.9,1.2-0.9h9v-9.1
		c0-0.8,0.3-1.2,0.9-1.2h6.4c0.6,0,0.9,0.4,0.9,1.2V21h9.1c0.8,0,1.2,0.3,1.2,0.9V28.3L38.9,28.3z"/>
	
		<linearGradient id="path18159_1_" gradientUnits="userSpaceOnUse" x1="-40.4363" y1="-183.1789" x2="-40.9263" y2="-159.8989" gradientTransform="matrix(1 0 0 -1 65.2436 -138.737)">
		<stop  offset="0" style="stop-color:#FFFFFF"/>
		<stop  offset="1" style="stop-color:#FFDB6F;stop-opacity:0"/>
	</linearGradient>
	<path id="path18159" inkscape:connector-curvature="0" class="st23" d="M44.4,27.2c-5.6-4.7-12.1-6.1-19.9-6.1
		c-7.9,0-14.5,1.3-20.1,5.9c2.3,9.2,10,18,20,18C34.4,45.1,42,36.4,44.4,27.2z"/>
	
		<linearGradient id="path18161_1_" gradientUnits="userSpaceOnUse" x1="-40.3562" y1="-183.1771" x2="-40.8462" y2="-164.0971" gradientTransform="matrix(1 0 0 -1 65.2436 -138.737)">
		<stop  offset="0" style="stop-color:#FFFFFF"/>
		<stop  offset="1" style="stop-color:#FFDB6F;stop-opacity:0"/>
	</linearGradient>
	<path id="path18161" inkscape:connector-curvature="0" class="st24" d="M44.4,27.2c-5.6-4.7-12.1-6.1-19.9-6.1
		c-7.9,0-14.5,1.3-20.1,5.9c2.3,9.2,10,18,20,18C34.4,45.1,42,36.4,44.4,27.2z"/>
	
		<linearGradient id="path18185_1_" gradientUnits="userSpaceOnUse" x1="-40.4363" y1="276.8211" x2="-40.9263" y2="300.1011" gradientTransform="matrix(1 0 0 1 65.2436 -272.701)">
		<stop  offset="0" style="stop-color:#FFFFFF"/>
		<stop  offset="1" style="stop-color:#FFDB6F;stop-opacity:0"/>
	</linearGradient>
	<path id="path18185" inkscape:connector-curvature="0" class="st25" d="M44.4,21.3c-5.6,4.7-12.1,6.1-19.9,6.1
		c-7.9,0-14.5-1.3-20.1-5.9c2.3-9.2,10-18,20-18C34.4,3.5,42,12.2,44.4,21.3z"/>
	
		<linearGradient id="path18187_1_" gradientUnits="userSpaceOnUse" x1="-40.3562" y1="276.8229" x2="-40.8462" y2="295.9029" gradientTransform="matrix(1 0 0 1 65.2436 -272.701)">
		<stop  offset="0" style="stop-color:#FFFFFF"/>
		<stop  offset="1" style="stop-color:#FFDB6F;stop-opacity:0"/>
	</linearGradient>
	<path id="path18187" inkscape:connector-curvature="0" class="st26" d="M44.4,21.3c-5.6,4.7-12.1,6.1-19.9,6.1
		c-7.9,0-14.5-1.3-20.1-5.9c2.3-9.2,10-18,20-18C34.4,3.5,42,12.2,44.4,21.3z"/>
</g>
</svg>
