<?xml version="1.0" encoding="utf-8"?>
<!-- Generator: Adobe Illustrator 22.0.1, SVG Export Plug-In . SVG Version: 6.00 Build 0)  -->
<svg version="1.1"
	 id="Layer_1" inkscape:export-filename="C:\Users\HernanS\Desktop\bet_one1.png" inkscape:export-xdpi="59.880001" inkscape:export-ydpi="59.880001" inkscape:version="0.48.4 r9939" sodipodi:docname="bet_one.svg" xmlns:cc="http://creativecommons.org/ns#" xmlns:dc="http://purl.org/dc/elements/1.1/" xmlns:inkscape="http://www.inkscape.org/namespaces/inkscape" xmlns:ns1="http://sozi.baierouge.fr" xmlns:rdf="http://www.w3.org/1999/02/22-rdf-syntax-ns#" xmlns:sodipodi="http://sodipodi.sourceforge.net/DTD/sodipodi-0.dtd"
	 xmlns="http://www.w3.org/2000/svg" xmlns:xlink="http://www.w3.org/1999/xlink" x="0px" y="0px" viewBox="0 0 48.5 48.5"
	 style="enable-background:new 0 0 48.5 48.5;" xml:space="preserve">
<style type="text/css">
	.st0{fill:#BF0000;}
	.st1{opacity:0.7;}
	.st2{fill:url(#path919_1_);}
	.st3{fill:url(#path938_1_);}
	.st4{opacity:0.4;fill:#FFFFFF;enable-background:new    ;}
	.st5{opacity:0.7;fill:#FFFFFF;enable-background:new    ;}
	.st6{opacity:0.5;}
	.st7{fill:url(#path988_1_);}
	.st8{fill:#FF0000;}
	.st9{fill:#FFFFFF;}
	.st10{fill:url(#path965_1_);}
</style>
<sodipodi:namedview  bordercolor="#666666" borderopacity="1" gridtolerance="10" guidetolerance="10" id="namedview10589" inkscape:current-layer="Layer_1" inkscape:cx="314.27829" inkscape:cy="127.63919" inkscape:pageopacity="0" inkscape:pageshadow="2" inkscape:window-height="745" inkscape:window-maximized="1" inkscape:window-width="1304" inkscape:window-x="54" inkscape:window-y="-8" inkscape:zoom="1.0934588" objecttolerance="10" pagecolor="#ffffff" showgrid="false">
	</sodipodi:namedview>
<g id="g22220" transform="translate(7.3162 3.6581)">
	<path id="path892" inkscape:connector-curvature="0" class="st0" d="M-7.3,20.6c0,13.4,10.9,24.3,24.3,24.3
		c13.4,0,24.3-10.9,24.3-24.3c0-13.4-10.9-24.3-24.3-24.3C3.6-3.7-7.3,7.2-7.3,20.6z"/>
	<g id="g894" class="st1">
		<g id="g896">
			
				<linearGradient id="path919_1_" gradientUnits="userSpaceOnUse" x1="-83.7594" y1="205.7878" x2="-83.7594" y2="163.9378" gradientTransform="matrix(-1 0 0 1 -66.8126 -164.2619)">
				<stop  offset="0" style="stop-color:#FFFFFF"/>
				<stop  offset="1.590000e-02" style="stop-color:#F7F7F7"/>
				<stop  offset="0.1324" style="stop-color:#BEBEBE"/>
				<stop  offset="0.2522" style="stop-color:#8B8B8B"/>
				<stop  offset="0.3727" style="stop-color:#606060"/>
				<stop  offset="0.4941" style="stop-color:#3D3D3D"/>
				<stop  offset="0.6165" style="stop-color:#222222"/>
				<stop  offset="0.7404" style="stop-color:#0F0F0F"/>
				<stop  offset="0.867" style="stop-color:#040404"/>
				<stop  offset="1" style="stop-color:#000000"/>
			</linearGradient>
			<path id="path919" inkscape:connector-curvature="0" class="st2" d="M16.9,0.6c11.5,0,20.9,8.9,21.1,20c0-0.2,0-0.3,0-0.5
				c0-11.3-9.5-20.5-21.1-20.5C5.3-0.3-4.2,8.8-4.2,20.1c0,0.2,0,0.3,0,0.5C-3.9,9.5,5.4,0.6,16.9,0.6L16.9,0.6z"/>
		</g>
	</g>
	
		<linearGradient id="path938_1_" gradientUnits="userSpaceOnUse" x1="-392.4789" y1="-145.1982" x2="-392.4789" y2="-191.7162" gradientTransform="matrix(1 0 0 -1 409.5762 -148.0543)">
		<stop  offset="0" style="stop-color:#FF8000"/>
		<stop  offset="6.590000e-02" style="stop-color:#FF6700"/>
		<stop  offset="0.1687" style="stop-color:#FF4800"/>
		<stop  offset="0.2809" style="stop-color:#FF2E00"/>
		<stop  offset="0.4039" style="stop-color:#FF1900"/>
		<stop  offset="0.5434" style="stop-color:#FF1000"/>
		<stop  offset="0.7134" style="stop-color:#FF0700"/>
		<stop  offset="1" style="stop-color:#FF0000"/>
	</linearGradient>
	<path id="path938" inkscape:connector-curvature="0" class="st3" d="M40.4,20.4c0,12.8-10.4,23.3-23.3,23.3
		C4.2,43.7-6.2,33.2-6.2,20.4S4.2-2.9,17.1-2.9C29.9-2.9,40.4,7.6,40.4,20.4z"/>
	<path id="path940" inkscape:connector-curvature="0" class="st4" d="M16.8,40.6c-5.6,0-13.2-2.6-18.2-8.3
		c3.9,5.8,10.6,9.6,18.2,9.6c8.3,0,15.4-4.6,19.2-11.3C31.7,36.6,24.5,40.6,16.8,40.6z"/>
	<path id="path942" inkscape:connector-curvature="0" class="st5" d="M16.9-0.1c6.8,0,13.1,3.3,17,8.3c-3.4-5.7-9.7-9.5-17-9.5
		c-7.3,0-13.6,3.8-17,9.5C3.8,3.2,10.1-0.1,16.9-0.1z"/>
	<g id="g967" class="st6">
		
			<linearGradient id="path988_1_" gradientUnits="userSpaceOnUse" x1="-391.7951" y1="-187.1154" x2="-393.6351" y2="-152.1955" gradientTransform="matrix(1 0 0 -1 409.5762 -148.0543)">
			<stop  offset="0" style="stop-color:#FFFFFF"/>
			<stop  offset="1" style="stop-color:#FFDB6F;stop-opacity:0"/>
		</linearGradient>
		<path id="path988" inkscape:connector-curvature="0" class="st7" d="M36.8,21.8c-5.6-4.7-12-6.1-19.8-6.1c-7.9,0-14.5,1.3-20,5.9
			c2.3,9.2,10,18,20,18C26.8,39.7,34.4,31,36.8,21.8z"/>
	</g>
	<g id="g990">
		<path id="path992" inkscape:connector-curvature="0" class="st8" d="M3.9,12c-0.7,0.7-1,1.9,0.2,3.1c0,0,4.3,4.3,5.5,5.5
			C8.4,21.8,4.2,26,4.2,26C3,27.2,3.3,28.4,4,29.1l4.5,4.5c0.7,0.7,1.9,1,3.1-0.2c0,0,4.3-4.3,5.5-5.5c1.2,1.2,5.5,5.5,5.5,5.5
			c1.2,1.2,2.4,0.8,3.1,0.2l4.5-4.5c0.7-0.7,1-1.9-0.2-3.1c0,0-4.3-4.3-5.5-5.5c1.2-1.2,5.5-5.5,5.5-5.5c1.2-1.2,0.8-2.4,0.2-3.1
			l-4.5-4.5c-0.7-0.7-1.9-1-3.1,0.2c0,0-4.3,4.3-5.5,5.5c-1.2-1.2-5.5-5.5-5.5-5.5c-1.2-1.2-2.4-0.8-3.1-0.2L3.9,12z"/>
		<path id="path994" inkscape:connector-curvature="0" class="st9" d="M29.2,12.8c0.4,0.4,0.4,0.9-0.2,1.5l-6.3,6.3l6.3,6.3
			c0.5,0.5,0.6,1,0.2,1.5l-4.5,4.5c-0.4,0.4-0.9,0.4-1.5-0.2L17,26.3l-6.3,6.3c-0.5,0.5-1,0.6-1.5,0.2l-4.5-4.5
			c-0.4-0.4-0.4-0.9,0.2-1.5l6.3-6.3l-6.3-6.3c-0.5-0.5-0.6-1-0.2-1.5l4.5-4.5c0.4-0.4,0.9-0.4,1.5,0.2l6.3,6.3l6.3-6.3
			c0.5-0.5,1-0.6,1.5-0.2L29.2,12.8L29.2,12.8z"/>
	</g>
	<g id="g944" class="st6">
		
			<linearGradient id="path965_1_" gradientUnits="userSpaceOnUse" x1="-393.2771" y1="-157.9586" x2="-392.2071" y2="-175.0986" gradientTransform="matrix(1 0 0 -1 409.5762 -148.0543)">
			<stop  offset="0" style="stop-color:#FFFFFF"/>
			<stop  offset="1" style="stop-color:#FFDB6F;stop-opacity:0"/>
		</linearGradient>
		<path id="path965" inkscape:connector-curvature="0" class="st10" d="M-3.1,19c5.6,4.7,12,6.1,19.8,6.1c7.9,0,14.5-1.3,20-5.9
			c-2.3-9.2-10-18-20-18C7,1.2-0.7,9.9-3.1,19z"/>
	</g>
</g>
</svg>
